<?xml version="1.0" encoding="UTF-8" standalone="no"?>
<!-- Created with Inkscape (http://www.inkscape.org/) -->

<svg
   xmlns:dc="http://purl.org/dc/elements/1.1/"
   xmlns:cc="http://creativecommons.org/ns#"
   xmlns:rdf="http://www.w3.org/1999/02/22-rdf-syntax-ns#"
   xmlns:svg="http://www.w3.org/2000/svg"
   xmlns="http://www.w3.org/2000/svg"
   xmlns:sodipodi="http://sodipodi.sourceforge.net/DTD/sodipodi-0.dtd"
   xmlns:inkscape="http://www.inkscape.org/namespaces/inkscape"
   width="800"
   height="250"
   id="svg2"
   version="1.1"
   inkscape:version="0.48.3.1 r9886"
   inkscape:export-filename="/usr/local/google/home/alancutter/repos/wa/butterflies/butterflies.png"
   inkscape:export-xdpi="90"
   inkscape:export-ydpi="90"
   sodipodi:docname="butterflies.svg">
  <defs
     id="defs4">
    <mask
       maskUnits="userSpaceOnUse"
       id="mask3916">
      <g
         id="g3918"
         transform="translate(-41.000001,286)">
        <path
           sodipodi:nodetypes="cscssc"
           inkscape:connector-curvature="0"
           id="path3920"
           d="m 141,621.62714 c 25.4149,-193.16305 111.43457,-75.95247 98.72712,0.93768 -12.70745,76.89021 -77.2222,65.63788 -77.2222,65.63788 0,0 56.66088,28.2032 33.23487,66.5757 C 178.72725,782.6455 141,754.7784 141,728.5232 z"
           style="fill:#ffffff;fill-opacity:1;stroke:none" />
        <path
           style="fill:#808080;stroke:none"
           d="m 152.5,-194.5 c 10.5,-65.75 33.07138,-71.24384 40.5,-71.5 14.5,-0.5 56.5,39.25 14.5,90.25 -16.99613,20.63815 -32.91062,13.91624 -34.8292,-4.07155 -2.75,-25.78291 16.0278,-72.49362 21.3292,-57.17845 9,26 0.5,44.5 -5,40 -5.5,-4.5 0,-22 0,-22 0.25,18 3.68735,9.0068 4.5,6.5 2.23952,-6.90828 -3.25,-20 -7,-14 -2.01818,3.22908 -12.5,56.5 8,34 20.5,-22.5 5.80357,-61.49 -4,-56 -25,14 -27.5,52 -36,96 -8.5,44 -6.31953,-14.95153 -2,-42 z"
           id="path3922"
           inkscape:connector-curvature="0"
           transform="translate(-1.245427e-6,802.3622)"
           sodipodi:nodetypes="sssssscssssss" />
        <path
           style="fill:#808080;stroke:none"
           d="m 147,-101.75 c -1.38756,47.548167 27.67124,72.089035 42.25,47 10.75,-18.5 -26.75,-47.25 -29,-37.5 -2.25,9.75 7.5,43.5 14.75,32.75 7.25,-10.75 -1,-19.25 -5,-20.25 3.75,4.75 6.25,19 1,13.5 -5.25,-5.5 -9,-23 -3.75,-21 5.25,2 21,17 12.25,31.5 -8.75,14.5 -23.04614,-14.093029 -25.75,-26.5 -2.84179,-13.039897 -6.4559,-29.57789 -6.75,-19.5 z"
           id="path3924"
           inkscape:connector-curvature="0"
           transform="translate(-1.245427e-6,802.3622)"
           sodipodi:nodetypes="ssssccssss" />
        <path
           style="fill:#808080;fill-rule:evenodd;stroke:none"
           d="m 149.75,676.1122 c 3.78244,11.15821 32.5,5 52.25,-8 19.75,-13 27.75,-47.5 24,-47.5 -3.75,0 -28,32.75 -37.25,32.5 -9.25,-0.25 -14.5,-13.5 -22.5,-6 -8,7.5 -4.25,20.25 -7,23 -2.75,2.75 -10.72248,2.39368 -9.5,6 z"
           id="path3926"
           inkscape:connector-curvature="0" />
        <path
           style="fill:#4d4d4d;fill-rule:evenodd;stroke:none"
           d="m 188.25,660.3622 c -12.15658,-1.06373 -12.5,-6 -17.25,-3.75 -4.75,2.25 -1.90239,10.50151 -4.25,14.25 -6.10942,9.75506 30.56606,-9.70669 21.5,-10.5 z"
           id="path3928"
           inkscape:connector-curvature="0" />
      </g>
    </mask>
    <mask
       maskUnits="userSpaceOnUse"
       id="mask3947">
      <g
         style="fill:#e52d2a;fill-opacity:1"
         id="g3949"
         transform="translate(-41.000001,286)">
        <path
           sodipodi:nodetypes="cscssc"
           inkscape:connector-curvature="0"
           id="path3951"
           d="m 141,621.62714 c 25.4149,-193.16305 111.43457,-75.95247 98.72712,0.93768 -12.70745,76.89021 -77.2222,65.63788 -77.2222,65.63788 0,0 56.66088,28.2032 33.23487,66.5757 C 178.72725,782.6455 141,754.7784 141,728.5232 z"
           style="fill:#ffffff;fill-opacity:1;stroke:none" />
        <path
           style="fill:#808080;stroke:none"
           d="m 152.5,-194.5 c 10.5,-65.75 33.07138,-71.24384 40.5,-71.5 14.5,-0.5 56.5,39.25 14.5,90.25 -16.99613,20.63815 -32.91062,13.91624 -34.8292,-4.07155 -2.75,-25.78291 16.0278,-72.49362 21.3292,-57.17845 9,26 0.5,44.5 -5,40 -5.5,-4.5 0,-22 0,-22 0.25,18 3.68735,9.0068 4.5,6.5 2.23952,-6.90828 -3.25,-20 -7,-14 -2.01818,3.22908 -12.5,56.5 8,34 20.5,-22.5 5.80357,-61.49 -4,-56 -25,14 -27.5,52 -36,96 -8.5,44 -6.31953,-14.95153 -2,-42 z"
           id="path3953"
           inkscape:connector-curvature="0"
           transform="translate(-1.245427e-6,802.3622)"
           sodipodi:nodetypes="sssssscssssss" />
        <path
           style="fill:#808080;stroke:none"
           d="m 147,-101.75 c -1.38756,47.548167 27.67124,72.089035 42.25,47 10.75,-18.5 -26.75,-47.25 -29,-37.5 -2.25,9.75 7.5,43.5 14.75,32.75 7.25,-10.75 -1,-19.25 -5,-20.25 3.75,4.75 6.25,19 1,13.5 -5.25,-5.5 -9,-23 -3.75,-21 5.25,2 21,17 12.25,31.5 -8.75,14.5 -23.04614,-14.093029 -25.75,-26.5 -2.84179,-13.039897 -6.4559,-29.57789 -6.75,-19.5 z"
           id="path3955"
           inkscape:connector-curvature="0"
           transform="translate(-1.245427e-6,802.3622)"
           sodipodi:nodetypes="ssssccssss" />
        <path
           inkscape:connector-curvature="0"
           style="fill:#808080;fill-rule:evenodd;stroke:none"
           d="m 149.75,676.1122 c 3.78244,11.15821 32.5,5 52.25,-8 19.75,-13 27.75,-47.5 24,-47.5 -3.75,0 -28,32.75 -37.25,32.5 -9.25,-0.25 -14.5,-13.5 -22.5,-6 -8,7.5 -4.25,20.25 -7,23 -2.75,2.75 -10.72248,2.39368 -9.5,6 z"
           id="path3957" />
        <path
           inkscape:connector-curvature="0"
           style="fill:#4d4d4d;fill-rule:evenodd;stroke:none"
           d="m 188.25,660.3622 c -12.15658,-1.06373 -12.5,-6 -17.25,-3.75 -4.75,2.25 -1.90239,10.50151 -4.25,14.25 -6.10942,9.75506 30.56606,-9.70669 21.5,-10.5 z"
           id="path3959" />
      </g>
    </mask>
    <mask
       maskUnits="userSpaceOnUse"
       id="mask3978">
      <g
         style="fill:#e52d2a;fill-opacity:1"
         id="g3980"
         transform="translate(-41.000001,286)">
        <path
           sodipodi:nodetypes="cscssc"
           inkscape:connector-curvature="0"
           id="path3982"
           d="m 141,621.62714 c 25.4149,-193.16305 111.43457,-75.95247 98.72712,0.93768 -12.70745,76.89021 -77.2222,65.63788 -77.2222,65.63788 0,0 56.66088,28.2032 33.23487,66.5757 C 178.72725,782.6455 141,754.7784 141,728.5232 z"
           style="fill:#ffffff;fill-opacity:1;stroke:none" />
        <path
           style="fill:#808080;stroke:none"
           d="m 152.5,-194.5 c 10.5,-65.75 33.07138,-71.24384 40.5,-71.5 14.5,-0.5 56.5,39.25 14.5,90.25 -16.99613,20.63815 -32.91062,13.91624 -34.8292,-4.07155 -2.75,-25.78291 16.0278,-72.49362 21.3292,-57.17845 9,26 0.5,44.5 -5,40 -5.5,-4.5 0,-22 0,-22 0.25,18 3.68735,9.0068 4.5,6.5 2.23952,-6.90828 -3.25,-20 -7,-14 -2.01818,3.22908 -12.5,56.5 8,34 20.5,-22.5 5.80357,-61.49 -4,-56 -25,14 -27.5,52 -36,96 -8.5,44 -6.31953,-14.95153 -2,-42 z"
           id="path3984"
           inkscape:connector-curvature="0"
           transform="translate(-1.245427e-6,802.3622)"
           sodipodi:nodetypes="sssssscssssss" />
        <path
           style="fill:#808080;stroke:none"
           d="m 147,-101.75 c -1.38756,47.548167 27.67124,72.089035 42.25,47 10.75,-18.5 -26.75,-47.25 -29,-37.5 -2.25,9.75 7.5,43.5 14.75,32.75 7.25,-10.75 -1,-19.25 -5,-20.25 3.75,4.75 6.25,19 1,13.5 -5.25,-5.5 -9,-23 -3.75,-21 5.25,2 21,17 12.25,31.5 -8.75,14.5 -23.04614,-14.093029 -25.75,-26.5 -2.84179,-13.039897 -6.4559,-29.57789 -6.75,-19.5 z"
           id="path3986"
           inkscape:connector-curvature="0"
           transform="translate(-1.245427e-6,802.3622)"
           sodipodi:nodetypes="ssssccssss" />
        <path
           inkscape:connector-curvature="0"
           style="fill:#808080;fill-rule:evenodd;stroke:none"
           d="m 149.75,676.1122 c 3.78244,11.15821 32.5,5 52.25,-8 19.75,-13 27.75,-47.5 24,-47.5 -3.75,0 -28,32.75 -37.25,32.5 -9.25,-0.25 -14.5,-13.5 -22.5,-6 -8,7.5 -4.25,20.25 -7,23 -2.75,2.75 -10.72248,2.39368 -9.5,6 z"
           id="path3988" />
        <path
           inkscape:connector-curvature="0"
           style="fill:#4d4d4d;fill-rule:evenodd;stroke:none"
           d="m 188.25,660.3622 c -12.15658,-1.06373 -12.5,-6 -17.25,-3.75 -4.75,2.25 -1.90239,10.50151 -4.25,14.25 -6.10942,9.75506 30.56606,-9.70669 21.5,-10.5 z"
           id="path3990" />
      </g>
    </mask>
    <mask
       maskUnits="userSpaceOnUse"
       id="mask4009">
      <g
         style="fill:#e52d2a;fill-opacity:1"
         id="g4011"
         transform="translate(-41.000001,286)">
        <path
           sodipodi:nodetypes="cscssc"
           inkscape:connector-curvature="0"
           id="path4013"
           d="m 141,621.62714 c 25.4149,-193.16305 111.43457,-75.95247 98.72712,0.93768 -12.70745,76.89021 -77.2222,65.63788 -77.2222,65.63788 0,0 56.66088,28.2032 33.23487,66.5757 C 178.72725,782.6455 141,754.7784 141,728.5232 z"
           style="fill:#ffffff;fill-opacity:1;stroke:none" />
        <path
           style="fill:#808080;stroke:none"
           d="m 152.5,-194.5 c 10.5,-65.75 33.07138,-71.24384 40.5,-71.5 14.5,-0.5 56.5,39.25 14.5,90.25 -16.99613,20.63815 -32.91062,13.91624 -34.8292,-4.07155 -2.75,-25.78291 16.0278,-72.49362 21.3292,-57.17845 9,26 0.5,44.5 -5,40 -5.5,-4.5 0,-22 0,-22 0.25,18 3.68735,9.0068 4.5,6.5 2.23952,-6.90828 -3.25,-20 -7,-14 -2.01818,3.22908 -12.5,56.5 8,34 20.5,-22.5 5.80357,-61.49 -4,-56 -25,14 -27.5,52 -36,96 -8.5,44 -6.31953,-14.95153 -2,-42 z"
           id="path4015"
           inkscape:connector-curvature="0"
           transform="translate(-1.245427e-6,802.3622)"
           sodipodi:nodetypes="sssssscssssss" />
        <path
           style="fill:#808080;stroke:none"
           d="m 147,-101.75 c -1.38756,47.548167 27.67124,72.089035 42.25,47 10.75,-18.5 -26.75,-47.25 -29,-37.5 -2.25,9.75 7.5,43.5 14.75,32.75 7.25,-10.75 -1,-19.25 -5,-20.25 3.75,4.75 6.25,19 1,13.5 -5.25,-5.5 -9,-23 -3.75,-21 5.25,2 21,17 12.25,31.5 -8.75,14.5 -23.04614,-14.093029 -25.75,-26.5 -2.84179,-13.039897 -6.4559,-29.57789 -6.75,-19.5 z"
           id="path4017"
           inkscape:connector-curvature="0"
           transform="translate(-1.245427e-6,802.3622)"
           sodipodi:nodetypes="ssssccssss" />
        <path
           inkscape:connector-curvature="0"
           style="fill:#808080;fill-rule:evenodd;stroke:none"
           d="m 149.75,676.1122 c 3.78244,11.15821 32.5,5 52.25,-8 19.75,-13 27.75,-47.5 24,-47.5 -3.75,0 -28,32.75 -37.25,32.5 -9.25,-0.25 -14.5,-13.5 -22.5,-6 -8,7.5 -4.25,20.25 -7,23 -2.75,2.75 -10.72248,2.39368 -9.5,6 z"
           id="path4019" />
        <path
           inkscape:connector-curvature="0"
           style="fill:#4d4d4d;fill-rule:evenodd;stroke:none"
           d="m 188.25,660.3622 c -12.15658,-1.06373 -12.5,-6 -17.25,-3.75 -4.75,2.25 -1.90239,10.50151 -4.25,14.25 -6.10942,9.75506 30.56606,-9.70669 21.5,-10.5 z"
           id="path4021" />
      </g>
    </mask>
  </defs>
  <sodipodi:namedview
     id="base"
     pagecolor="#ffffff"
     bordercolor="#666666"
     borderopacity="1.0"
     inkscape:pageopacity="0.0"
     inkscape:pageshadow="2"
     inkscape:zoom="1"
     inkscape:cx="338.24556"
     inkscape:cy="259.97546"
     inkscape:document-units="px"
     inkscape:current-layer="layer1"
     showgrid="false"
     fit-margin-top="0"
     fit-margin-left="0"
     fit-margin-right="0"
     fit-margin-bottom="0"
     inkscape:window-width="1855"
     inkscape:window-height="1176"
     inkscape:window-x="1985"
     inkscape:window-y="24"
     inkscape:window-maximized="1" />
  <metadata
     id="metadata7">
    <rdf:RDF>
      <cc:Work
         rdf:about="">
        <dc:format>image/svg+xml</dc:format>
        <dc:type
           rdf:resource="http://purl.org/dc/dcmitype/StillImage" />
        <dc:title></dc:title>
      </cc:Work>
    </rdf:RDF>
  </metadata>
  <g
     inkscape:label="Layer 1"
     inkscape:groupmode="layer"
     id="layer1"
     transform="translate(1.245427e-6,-802.3622)">
    <g
       id="g3880"
       style="fill:#e52d2a;fill-opacity:1">
      <path
         sodipodi:nodetypes="cscssc"
         inkscape:connector-curvature="0"
         id="path2985"
         d="m 100,907.62714 c 25.4149,-193.16305 111.43457,-75.95247 98.72712,0.93768 -12.70745,76.89021 -77.2222,65.63788 -77.2222,65.63788 0,0 56.66088,28.2032 33.23487,66.5757 -17.01254,27.8671 -54.73979,0 -54.73979,-26.2552 z"
         style="fill:#e52d2a;fill-opacity:1;stroke:none"
         mask="url(#mask3916)" />
      <g
         transform="matrix(1.1083141,0,0,0.99858201,-41.259821,30.408558)"
         id="g3869"
         style="fill:#e52d2a;fill-opacity:1">
        <g
           id="g3847"
           transform="matrix(1,0,0,-1,-49.658882,1833.7244)"
           style="fill:#e52d2a;fill-opacity:1">
          <path
             id="path3845"
             d="m 140,971.11218 c 0,-16.15433 -3.58172,-40.25 -8,-40.25 -4.41828,0 -8,24.09567 -8,40.25 0,16.15433 3.58172,18.25 8,18.25 4.41828,0 8,-2.09567 8,-18.25 z"
             style="color:#000000;fill:#e52d2a;fill-opacity:1;fill-rule:nonzero;stroke:none;stroke-width:1;marker:none;visibility:visible;display:inline;overflow:visible;enable-background:accumulate"
             inkscape:connector-curvature="0" />
          <path
             id="path3072"
             d="m 140,876.86218 c 0,32.30866 -3.58172,80.5 -8,80.5 -4.41828,0 -8,-48.19134 -8,-80.5 0,-32.30866 3.58172,-36.5 8,-36.5 4.41828,0 8,4.19134 8,36.5 z"
             style="color:#000000;fill:#e52d2a;fill-opacity:1;fill-rule:nonzero;stroke:none;stroke-width:1;marker:none;visibility:visible;display:inline;overflow:visible;enable-background:accumulate"
             inkscape:connector-curvature="0" />
        </g>
        <g
           id="g3859"
           style="fill:#e52d2a;fill-opacity:1">
          <path
             inkscape:connector-curvature="0"
             id="path3851"
             d="m 118.78619,777.50848 c 0,0 -7.55249,3.60738 -15.58328,14.57532 -8.030796,10.96794 -16.766335,29.39304 -19.97536,59.2681 l 3.977122,0.42721 c 3.145602,-29.28463 11.615996,-46.9785 19.202468,-57.33963 7.58649,-10.36112 14.06596,-13.32395 14.06596,-13.32395 l -1.68691,-3.60705 z"
             style="font-size:medium;font-style:normal;font-variant:normal;font-weight:normal;font-stretch:normal;text-indent:0;text-align:start;text-decoration:none;line-height:normal;letter-spacing:normal;word-spacing:normal;text-transform:none;direction:ltr;block-progression:tb;writing-mode:lr-tb;text-anchor:start;baseline-shift:baseline;color:#000000;fill:#e52d2a;fill-opacity:1;stroke:none;stroke-width:0;marker:none;visibility:visible;display:inline;overflow:visible;enable-background:accumulate;font-family:Sans;-inkscape-font-specification:Sans" />
          <path
             transform="matrix(0.73390876,0.07883268,-0.07883268,0.73390876,98.993067,200.08553)"
             d="m 122,775.11218 c 0,3.72792 -3.02208,6.75 -6.75,6.75 -3.72792,0 -6.75,-3.02208 -6.75,-6.75 0,-3.72792 3.02208,-6.75 6.75,-6.75 3.72792,0 6.75,3.02208 6.75,6.75 z"
             sodipodi:ry="6.75"
             sodipodi:rx="6.75"
             sodipodi:cy="775.11218"
             sodipodi:cx="115.25"
             id="path3857"
             style="color:#000000;fill:#e52d2a;fill-opacity:1;fill-rule:nonzero;stroke:#ff0000;stroke-width:0;stroke-linecap:butt;stroke-linejoin:miter;stroke-miterlimit:4;stroke-opacity:1;stroke-dasharray:none;stroke-dashoffset:0;marker:none;visibility:visible;display:inline;overflow:visible;enable-background:accumulate"
             sodipodi:type="arc" />
        </g>
        <g
           id="g3863"
           transform="matrix(-1,0,0,1,164.68223,0)"
           style="fill:#e52d2a;fill-opacity:1">
          <path
             style="font-size:medium;font-style:normal;font-variant:normal;font-weight:normal;font-stretch:normal;text-indent:0;text-align:start;text-decoration:none;line-height:normal;letter-spacing:normal;word-spacing:normal;text-transform:none;direction:ltr;block-progression:tb;writing-mode:lr-tb;text-anchor:start;baseline-shift:baseline;color:#000000;fill:#e52d2a;fill-opacity:1;stroke:none;stroke-width:0;marker:none;visibility:visible;display:inline;overflow:visible;enable-background:accumulate;font-family:Sans;-inkscape-font-specification:Sans"
             d="m 118.78619,777.50848 c 0,0 -7.55249,3.60738 -15.58328,14.57532 -8.030796,10.96794 -16.766335,29.39304 -19.97536,59.2681 l 3.977122,0.42721 c 3.145602,-29.28463 11.615996,-46.9785 19.202468,-57.33963 7.58649,-10.36112 14.06596,-13.32395 14.06596,-13.32395 l -1.68691,-3.60705 z"
             id="path3865"
             inkscape:connector-curvature="0" />
          <path
             sodipodi:type="arc"
             style="color:#000000;fill:#e52d2a;fill-opacity:1;fill-rule:nonzero;stroke:#ff0000;stroke-width:0;stroke-linecap:butt;stroke-linejoin:miter;stroke-miterlimit:4;stroke-opacity:1;stroke-dasharray:none;stroke-dashoffset:0;marker:none;visibility:visible;display:inline;overflow:visible;enable-background:accumulate"
             id="path3867"
             sodipodi:cx="115.25"
             sodipodi:cy="775.11218"
             sodipodi:rx="6.75"
             sodipodi:ry="6.75"
             d="m 122,775.11218 c 0,3.72792 -3.02208,6.75 -6.75,6.75 -3.72792,0 -6.75,-3.02208 -6.75,-6.75 0,-3.72792 3.02208,-6.75 6.75,-6.75 3.72792,0 6.75,3.02208 6.75,6.75 z"
             transform="matrix(0.73390876,0.07883268,-0.07883268,0.73390876,98.993067,200.08553)" />
        </g>
      </g>
    </g>
    <g
       id="g3893"
       transform="translate(200,0)"
       style="fill:#fbd900;fill-opacity:1">
      <path
         style="fill:#fbd900;fill-opacity:1;stroke:none"
         d="m 100,907.62714 c 25.4149,-193.16305 111.43457,-75.95247 98.72712,0.93768 -12.70745,76.89021 -77.2222,65.63788 -77.2222,65.63788 0,0 56.66088,28.2032 33.23487,66.5757 -17.01254,27.8671 -54.73979,0 -54.73979,-26.2552 z"
         id="path3895"
         inkscape:connector-curvature="0"
         sodipodi:nodetypes="cscssc"
         mask="url(#mask3947)" />
      <g
         id="g3897"
         transform="matrix(1.1083141,0,0,0.99858201,-41.259821,30.408558)"
         style="fill:#fbd900;fill-opacity:1">
        <g
           transform="matrix(1,0,0,-1,-49.658882,1833.7244)"
           id="g3899"
           style="fill:#fbd900;fill-opacity:1">
          <path
             inkscape:connector-curvature="0"
             style="color:#000000;fill:#fbd900;fill-opacity:1;fill-rule:nonzero;stroke:none;stroke-width:1;marker:none;visibility:visible;display:inline;overflow:visible;enable-background:accumulate"
             d="m 140,971.11218 c 0,-16.15433 -3.58172,-40.25 -8,-40.25 -4.41828,0 -8,24.09567 -8,40.25 0,16.15433 3.58172,18.25 8,18.25 4.41828,0 8,-2.09567 8,-18.25 z"
             id="path3901" />
          <path
             inkscape:connector-curvature="0"
             style="color:#000000;fill:#fbd900;fill-opacity:1;fill-rule:nonzero;stroke:none;stroke-width:1;marker:none;visibility:visible;display:inline;overflow:visible;enable-background:accumulate"
             d="m 140,876.86218 c 0,32.30866 -3.58172,80.5 -8,80.5 -4.41828,0 -8,-48.19134 -8,-80.5 0,-32.30866 3.58172,-36.5 8,-36.5 4.41828,0 8,4.19134 8,36.5 z"
             id="path3903" />
        </g>
        <g
           id="g3905"
           style="fill:#fbd900;fill-opacity:1">
          <path
             style="font-size:medium;font-style:normal;font-variant:normal;font-weight:normal;font-stretch:normal;text-indent:0;text-align:start;text-decoration:none;line-height:normal;letter-spacing:normal;word-spacing:normal;text-transform:none;direction:ltr;block-progression:tb;writing-mode:lr-tb;text-anchor:start;baseline-shift:baseline;color:#000000;fill:#fbd900;fill-opacity:1;stroke:none;stroke-width:0;marker:none;visibility:visible;display:inline;overflow:visible;enable-background:accumulate;font-family:Sans;-inkscape-font-specification:Sans"
             d="m 118.78619,777.50848 c 0,0 -7.55249,3.60738 -15.58328,14.57532 -8.030796,10.96794 -16.766335,29.39304 -19.97536,59.2681 l 3.977122,0.42721 c 3.145602,-29.28463 11.615996,-46.9785 19.202468,-57.33963 7.58649,-10.36112 14.06596,-13.32395 14.06596,-13.32395 l -1.68691,-3.60705 z"
             id="path3907"
             inkscape:connector-curvature="0" />
          <path
             sodipodi:type="arc"
             style="color:#000000;fill:#fbd900;fill-opacity:1;fill-rule:nonzero;stroke:#ff0000;stroke-width:0;stroke-linecap:butt;stroke-linejoin:miter;stroke-miterlimit:4;stroke-opacity:1;stroke-dasharray:none;stroke-dashoffset:0;marker:none;visibility:visible;display:inline;overflow:visible;enable-background:accumulate"
             id="path3909"
             sodipodi:cx="115.25"
             sodipodi:cy="775.11218"
             sodipodi:rx="6.75"
             sodipodi:ry="6.75"
             d="m 122,775.11218 c 0,3.72792 -3.02208,6.75 -6.75,6.75 -3.72792,0 -6.75,-3.02208 -6.75,-6.75 0,-3.72792 3.02208,-6.75 6.75,-6.75 3.72792,0 6.75,3.02208 6.75,6.75 z"
             transform="matrix(0.73390876,0.07883268,-0.07883268,0.73390876,98.993067,200.08553)" />
        </g>
        <g
           transform="matrix(-1,0,0,1,164.68223,0)"
           id="g3911"
           style="fill:#fbd900;fill-opacity:1">
          <path
             inkscape:connector-curvature="0"
             id="path3913"
             d="m 118.78619,777.50848 c 0,0 -7.55249,3.60738 -15.58328,14.57532 -8.030796,10.96794 -16.766335,29.39304 -19.97536,59.2681 l 3.977122,0.42721 c 3.145602,-29.28463 11.615996,-46.9785 19.202468,-57.33963 7.58649,-10.36112 14.06596,-13.32395 14.06596,-13.32395 l -1.68691,-3.60705 z"
             style="font-size:medium;font-style:normal;font-variant:normal;font-weight:normal;font-stretch:normal;text-indent:0;text-align:start;text-decoration:none;line-height:normal;letter-spacing:normal;word-spacing:normal;text-transform:none;direction:ltr;block-progression:tb;writing-mode:lr-tb;text-anchor:start;baseline-shift:baseline;color:#000000;fill:#fbd900;fill-opacity:1;stroke:none;stroke-width:0;marker:none;visibility:visible;display:inline;overflow:visible;enable-background:accumulate;font-family:Sans;-inkscape-font-specification:Sans" />
          <path
             transform="matrix(0.73390876,0.07883268,-0.07883268,0.73390876,98.993067,200.08553)"
             d="m 122,775.11218 c 0,3.72792 -3.02208,6.75 -6.75,6.75 -3.72792,0 -6.75,-3.02208 -6.75,-6.75 0,-3.72792 3.02208,-6.75 6.75,-6.75 3.72792,0 6.75,3.02208 6.75,6.75 z"
             sodipodi:ry="6.75"
             sodipodi:rx="6.75"
             sodipodi:cy="775.11218"
             sodipodi:cx="115.25"
             id="path3915"
             style="color:#000000;fill:#fbd900;fill-opacity:1;fill-rule:nonzero;stroke:#ff0000;stroke-width:0;stroke-linecap:butt;stroke-linejoin:miter;stroke-miterlimit:4;stroke-opacity:1;stroke-dasharray:none;stroke-dashoffset:0;marker:none;visibility:visible;display:inline;overflow:visible;enable-background:accumulate"
             sodipodi:type="arc" />
        </g>
      </g>
    </g>
    <g
       style="fill:#64b54c;fill-opacity:1"
       transform="translate(400,0)"
       id="g3917">
      <path
         sodipodi:nodetypes="cscssc"
         inkscape:connector-curvature="0"
         id="path3919"
         d="m 100,907.62714 c 25.4149,-193.16305 111.43457,-75.95247 98.72712,0.93768 -12.70745,76.89021 -77.2222,65.63788 -77.2222,65.63788 0,0 56.66088,28.2032 33.23487,66.5757 -17.01254,27.8671 -54.73979,0 -54.73979,-26.2552 z"
         style="fill:#64b54c;fill-opacity:1;stroke:none"
         mask="url(#mask3978)" />
      <g
         style="fill:#64b54c;fill-opacity:1"
         transform="matrix(1.1083141,0,0,0.99858201,-41.259821,30.408558)"
         id="g3921">
        <g
           style="fill:#64b54c;fill-opacity:1"
           id="g3923"
           transform="matrix(1,0,0,-1,-49.658882,1833.7244)">
          <path
             id="path3925"
             d="m 140,971.11218 c 0,-16.15433 -3.58172,-40.25 -8,-40.25 -4.41828,0 -8,24.09567 -8,40.25 0,16.15433 3.58172,18.25 8,18.25 4.41828,0 8,-2.09567 8,-18.25 z"
             style="color:#000000;fill:#64b54c;fill-opacity:1;fill-rule:nonzero;stroke:none;stroke-width:1;marker:none;visibility:visible;display:inline;overflow:visible;enable-background:accumulate"
             inkscape:connector-curvature="0" />
          <path
             id="path3927"
             d="m 140,876.86218 c 0,32.30866 -3.58172,80.5 -8,80.5 -4.41828,0 -8,-48.19134 -8,-80.5 0,-32.30866 3.58172,-36.5 8,-36.5 4.41828,0 8,4.19134 8,36.5 z"
             style="color:#000000;fill:#64b54c;fill-opacity:1;fill-rule:nonzero;stroke:none;stroke-width:1;marker:none;visibility:visible;display:inline;overflow:visible;enable-background:accumulate"
             inkscape:connector-curvature="0" />
        </g>
        <g
           style="fill:#64b54c;fill-opacity:1"
           id="g3929">
          <path
             inkscape:connector-curvature="0"
             id="path3931"
             d="m 118.78619,777.50848 c 0,0 -7.55249,3.60738 -15.58328,14.57532 -8.030796,10.96794 -16.766335,29.39304 -19.97536,59.2681 l 3.977122,0.42721 c 3.145602,-29.28463 11.615996,-46.9785 19.202468,-57.33963 7.58649,-10.36112 14.06596,-13.32395 14.06596,-13.32395 l -1.68691,-3.60705 z"
             style="font-size:medium;font-style:normal;font-variant:normal;font-weight:normal;font-stretch:normal;text-indent:0;text-align:start;text-decoration:none;line-height:normal;letter-spacing:normal;word-spacing:normal;text-transform:none;direction:ltr;block-progression:tb;writing-mode:lr-tb;text-anchor:start;baseline-shift:baseline;color:#000000;fill:#64b54c;fill-opacity:1;stroke:none;stroke-width:0;marker:none;visibility:visible;display:inline;overflow:visible;enable-background:accumulate;font-family:Sans;-inkscape-font-specification:Sans" />
          <path
             transform="matrix(0.73390876,0.07883268,-0.07883268,0.73390876,98.993067,200.08553)"
             d="m 122,775.11218 c 0,3.72792 -3.02208,6.75 -6.75,6.75 -3.72792,0 -6.75,-3.02208 -6.75,-6.75 0,-3.72792 3.02208,-6.75 6.75,-6.75 3.72792,0 6.75,3.02208 6.75,6.75 z"
             sodipodi:ry="6.75"
             sodipodi:rx="6.75"
             sodipodi:cy="775.11218"
             sodipodi:cx="115.25"
             id="path3933"
             style="color:#000000;fill:#64b54c;fill-opacity:1;fill-rule:nonzero;stroke:#ff0000;stroke-width:0;stroke-linecap:butt;stroke-linejoin:miter;stroke-miterlimit:4;stroke-opacity:1;stroke-dasharray:none;stroke-dashoffset:0;marker:none;visibility:visible;display:inline;overflow:visible;enable-background:accumulate"
             sodipodi:type="arc" />
        </g>
        <g
           style="fill:#64b54c;fill-opacity:1"
           id="g3935"
           transform="matrix(-1,0,0,1,164.68223,0)">
          <path
             style="font-size:medium;font-style:normal;font-variant:normal;font-weight:normal;font-stretch:normal;text-indent:0;text-align:start;text-decoration:none;line-height:normal;letter-spacing:normal;word-spacing:normal;text-transform:none;direction:ltr;block-progression:tb;writing-mode:lr-tb;text-anchor:start;baseline-shift:baseline;color:#000000;fill:#64b54c;fill-opacity:1;stroke:none;stroke-width:0;marker:none;visibility:visible;display:inline;overflow:visible;enable-background:accumulate;font-family:Sans;-inkscape-font-specification:Sans"
             d="m 118.78619,777.50848 c 0,0 -7.55249,3.60738 -15.58328,14.57532 -8.030796,10.96794 -16.766335,29.39304 -19.97536,59.2681 l 3.977122,0.42721 c 3.145602,-29.28463 11.615996,-46.9785 19.202468,-57.33963 7.58649,-10.36112 14.06596,-13.32395 14.06596,-13.32395 l -1.68691,-3.60705 z"
             id="path3937"
             inkscape:connector-curvature="0" />
          <path
             sodipodi:type="arc"
             style="color:#000000;fill:#64b54c;fill-opacity:1;fill-rule:nonzero;stroke:#ff0000;stroke-width:0;stroke-linecap:butt;stroke-linejoin:miter;stroke-miterlimit:4;stroke-opacity:1;stroke-dasharray:none;stroke-dashoffset:0;marker:none;visibility:visible;display:inline;overflow:visible;enable-background:accumulate"
             id="path3939"
             sodipodi:cx="115.25"
             sodipodi:cy="775.11218"
             sodipodi:rx="6.75"
             sodipodi:ry="6.75"
             d="m 122,775.11218 c 0,3.72792 -3.02208,6.75 -6.75,6.75 -3.72792,0 -6.75,-3.02208 -6.75,-6.75 0,-3.72792 3.02208,-6.75 6.75,-6.75 3.72792,0 6.75,3.02208 6.75,6.75 z"
             transform="matrix(0.73390876,0.07883268,-0.07883268,0.73390876,98.993067,200.08553)" />
        </g>
      </g>
    </g>
    <g
       id="g3952"
       transform="translate(600,0)"
       style="fill:#0a6cb5;fill-opacity:1">
      <path
         style="fill:#0a6cb5;fill-opacity:1;stroke:none"
         d="m 100,907.62714 c 25.4149,-193.16305 111.43457,-75.95247 98.72712,0.93768 -12.70745,76.89021 -77.2222,65.63788 -77.2222,65.63788 0,0 56.66088,28.2032 33.23487,66.5757 -17.01254,27.8671 -54.73979,0 -54.73979,-26.2552 z"
         id="path3954"
         inkscape:connector-curvature="0"
         sodipodi:nodetypes="cscssc"
         mask="url(#mask4009)" />
      <g
         id="g3956"
         transform="matrix(1.1083141,0,0,0.99858201,-41.259821,30.408558)"
         style="fill:#0a6cb5;fill-opacity:1">
        <g
           transform="matrix(1,0,0,-1,-49.658882,1833.7244)"
           id="g3958"
           style="fill:#0a6cb5;fill-opacity:1">
          <path
             inkscape:connector-curvature="0"
             style="color:#000000;fill:#0a6cb5;fill-opacity:1;fill-rule:nonzero;stroke:none;stroke-width:1;marker:none;visibility:visible;display:inline;overflow:visible;enable-background:accumulate"
             d="m 140,971.11218 c 0,-16.15433 -3.58172,-40.25 -8,-40.25 -4.41828,0 -8,24.09567 -8,40.25 0,16.15433 3.58172,18.25 8,18.25 4.41828,0 8,-2.09567 8,-18.25 z"
             id="path3960" />
          <path
             inkscape:connector-curvature="0"
             style="color:#000000;fill:#0a6cb5;fill-opacity:1;fill-rule:nonzero;stroke:none;stroke-width:1;marker:none;visibility:visible;display:inline;overflow:visible;enable-background:accumulate"
             d="m 140,876.86218 c 0,32.30866 -3.58172,80.5 -8,80.5 -4.41828,0 -8,-48.19134 -8,-80.5 0,-32.30866 3.58172,-36.5 8,-36.5 4.41828,0 8,4.19134 8,36.5 z"
             id="path3962" />
        </g>
        <g
           id="g3964"
           style="fill:#0a6cb5;fill-opacity:1">
          <path
             style="font-size:medium;font-style:normal;font-variant:normal;font-weight:normal;font-stretch:normal;text-indent:0;text-align:start;text-decoration:none;line-height:normal;letter-spacing:normal;word-spacing:normal;text-transform:none;direction:ltr;block-progression:tb;writing-mode:lr-tb;text-anchor:start;baseline-shift:baseline;color:#000000;fill:#0a6cb5;fill-opacity:1;stroke:none;stroke-width:0;marker:none;visibility:visible;display:inline;overflow:visible;enable-background:accumulate;font-family:Sans;-inkscape-font-specification:Sans"
             d="m 118.78619,777.50848 c 0,0 -7.55249,3.60738 -15.58328,14.57532 -8.030796,10.96794 -16.766335,29.39304 -19.97536,59.2681 l 3.977122,0.42721 c 3.145602,-29.28463 11.615996,-46.9785 19.202468,-57.33963 7.58649,-10.36112 14.06596,-13.32395 14.06596,-13.32395 l -1.68691,-3.60705 z"
             id="path3966"
             inkscape:connector-curvature="0" />
          <path
             sodipodi:type="arc"
             style="color:#000000;fill:#0a6cb5;fill-opacity:1;fill-rule:nonzero;stroke:#ff0000;stroke-width:0;stroke-linecap:butt;stroke-linejoin:miter;stroke-miterlimit:4;stroke-opacity:1;stroke-dasharray:none;stroke-dashoffset:0;marker:none;visibility:visible;display:inline;overflow:visible;enable-background:accumulate"
             id="path3968"
             sodipodi:cx="115.25"
             sodipodi:cy="775.11218"
             sodipodi:rx="6.75"
             sodipodi:ry="6.75"
             d="m 122,775.11218 c 0,3.72792 -3.02208,6.75 -6.75,6.75 -3.72792,0 -6.75,-3.02208 -6.75,-6.75 0,-3.72792 3.02208,-6.75 6.75,-6.75 3.72792,0 6.75,3.02208 6.75,6.75 z"
             transform="matrix(0.73390876,0.07883268,-0.07883268,0.73390876,98.993067,200.08553)" />
        </g>
        <g
           transform="matrix(-1,0,0,1,164.68223,0)"
           id="g3970"
           style="fill:#0a6cb5;fill-opacity:1">
          <path
             inkscape:connector-curvature="0"
             id="path3972"
             d="m 118.78619,777.50848 c 0,0 -7.55249,3.60738 -15.58328,14.57532 -8.030796,10.96794 -16.766335,29.39304 -19.97536,59.2681 l 3.977122,0.42721 c 3.145602,-29.28463 11.615996,-46.9785 19.202468,-57.33963 7.58649,-10.36112 14.06596,-13.32395 14.06596,-13.32395 l -1.68691,-3.60705 z"
             style="font-size:medium;font-style:normal;font-variant:normal;font-weight:normal;font-stretch:normal;text-indent:0;text-align:start;text-decoration:none;line-height:normal;letter-spacing:normal;word-spacing:normal;text-transform:none;direction:ltr;block-progression:tb;writing-mode:lr-tb;text-anchor:start;baseline-shift:baseline;color:#000000;fill:#0a6cb5;fill-opacity:1;stroke:none;stroke-width:0;marker:none;visibility:visible;display:inline;overflow:visible;enable-background:accumulate;font-family:Sans;-inkscape-font-specification:Sans" />
          <path
             transform="matrix(0.73390876,0.07883268,-0.07883268,0.73390876,98.993067,200.08553)"
             d="m 122,775.11218 c 0,3.72792 -3.02208,6.75 -6.75,6.75 -3.72792,0 -6.75,-3.02208 -6.75,-6.75 0,-3.72792 3.02208,-6.75 6.75,-6.75 3.72792,0 6.75,3.02208 6.75,6.75 z"
             sodipodi:ry="6.75"
             sodipodi:rx="6.75"
             sodipodi:cy="775.11218"
             sodipodi:cx="115.25"
             id="path3974"
             style="color:#000000;fill:#0a6cb5;fill-opacity:1;fill-rule:nonzero;stroke:#ff0000;stroke-width:0;stroke-linecap:butt;stroke-linejoin:miter;stroke-miterlimit:4;stroke-opacity:1;stroke-dasharray:none;stroke-dashoffset:0;marker:none;visibility:visible;display:inline;overflow:visible;enable-background:accumulate"
             sodipodi:type="arc" />
        </g>
      </g>
    </g>
    <g
       id="g3825"
       transform="translate(42,-92)">
      <path
         style="fill:#ffffff;fill-opacity:1;stroke:none"
         d="m 141,621.62714 c 25.4149,-193.16305 111.43457,-75.95247 98.72712,0.93768 -12.70745,76.89021 -77.2222,65.63788 -77.2222,65.63788 0,0 56.66088,28.2032 33.23487,66.5757 C 178.72725,782.6455 141,754.7784 141,728.5232 z"
         id="path2985-7"
         inkscape:connector-curvature="0"
         sodipodi:nodetypes="cscssc" />
      <path
         sodipodi:nodetypes="sssssscssssss"
         transform="translate(-1.245427e-6,802.3622)"
         inkscape:connector-curvature="0"
         id="path3048"
         d="m 152.5,-194.5 c 10.5,-65.75 33.07138,-71.24384 40.5,-71.5 14.5,-0.5 56.5,39.25 14.5,90.25 -16.99613,20.63815 -32.91062,13.91624 -34.8292,-4.07155 -2.75,-25.78291 16.0278,-72.49362 21.3292,-57.17845 9,26 0.5,44.5 -5,40 -5.5,-4.5 0,-22 0,-22 0.25,18 3.68735,9.0068 4.5,6.5 2.23952,-6.90828 -3.25,-20 -7,-14 -2.01818,3.22908 -12.5,56.5 8,34 20.5,-22.5 5.80357,-61.49 -4,-56 -25,14 -27.5,52 -36,96 -8.5,44 -6.31953,-14.95153 -2,-42 z"
         style="fill:#b3b3b3;stroke:none" />
      <path
         sodipodi:nodetypes="ssssccssss"
         transform="translate(-1.245427e-6,802.3622)"
         inkscape:connector-curvature="0"
         id="path3050"
         d="m 147,-101.75 c -1.38756,47.548167 27.67124,72.089035 42.25,47 10.75,-18.5 -26.75,-47.25 -29,-37.5 -2.25,9.75 7.5,43.5 14.75,32.75 7.25,-10.75 -1,-19.25 -5,-20.25 3.75,4.75 6.25,19 1,13.5 -5.25,-5.5 -9,-23 -3.75,-21 5.25,2 21,17 12.25,31.5 -8.75,14.5 -23.04614,-14.093029 -25.75,-26.5 -2.84179,-13.039897 -6.4559,-29.57789 -6.75,-19.5 z"
         style="fill:#b3b3b3;stroke:none" />
      <path
         sodipodi:nodetypes="sssssssssss"
         inkscape:connector-curvature="0"
         d="m 188.25,-142 c -12.15658,-1.06373 -12.5,-6 -17.25,-3.75 -4.75,2.25 -1.90239,10.50151 -4.25,14.25 -6.10942,9.75506 30.56606,-9.70669 21.5,-10.5 z m -38.5,15.75 c 3.78244,11.15821 32.5,5 52.25,-8 19.75,-13 27.75,-47.5 24,-47.5 -3.75,0 -28,32.75 -37.25,32.5 -9.25,-0.25 -14.5,-13.5 -22.5,-6 -8,7.5 -4.25,20.25 -7,23 -2.75,2.75 -10.72248,2.39368 -9.5,6 z"
         style="fill:#b3b3b3;fill-rule:evenodd;stroke:none"
         transform="translate(-1.245427e-6,802.3622)"
         id="path3054" />
    </g>
  </g>
</svg>
